{"glyphs":{"0":{"ha":917,"x_min":101,"x_max":818,"o":"m 101 17 l 101 954 q 106 967 101 961 q 118 972 111 972 l 801 972 q 818 954 818 972 l 818 17 q 801 -1 818 -1 l 118 -1 q 106 4 111 -1 q 101 17 101 10 m 279 796 l 279 176 l 640 176 l 640 796 l 279 796 z "},"1":{"ha":469,"x_min":7,"x_max":371,"o":"m 13 815 l 115 950 q 161 972 133 972 l 354 972 q 371 954 371 972 l 371 17 q 354 -1 371 -1 l 211 -1 q 194 17 194 -1 l 194 796 l 22 796 q 11 802 15 796 q 13 815 7 808 z "},"2":{"ha":765,"x_min":50,"x_max":696,"o":"m 56 815 l 158 950 q 204 972 176 972 l 679 972 q 691 967 686 972 q 696 954 696 961 l 696 744 q 688 721 696 732 l 269 175 l 679 175 q 691 170 686 175 q 696 158 696 165 l 696 17 q 691 4 696 10 q 679 -1 686 -1 l 104 -1 q 92 4 97 -1 q 88 17 88 10 l 88 239 l 515 796 l 65 796 q 54 802 58 796 q 56 815 50 808 z "},"3":{"ha":789,"x_min":101,"x_max":690,"o":"m 101 17 l 101 158 q 106 170 101 165 q 118 175 111 175 l 510 175 l 279 475 q 279 496 271 486 l 510 794 l 118 794 q 106 800 111 794 q 101 813 101 806 l 101 954 q 106 967 101 961 q 118 972 111 972 l 674 972 q 690 954 690 972 l 690 751 q 679 715 690 733 l 501 485 l 679 254 q 690 219 690 239 l 690 17 q 674 -1 690 -1 l 118 -1 q 106 4 111 -1 q 101 17 101 10 z "},"4":{"ha":754,"x_min":26,"x_max":688,"o":"m 39 508 l 378 950 q 422 972 393 972 l 600 972 q 610 965 607 972 q 610 951 614 958 l 207 429 l 671 429 q 688 411 688 429 l 688 17 q 671 -1 688 -1 l 528 -1 q 511 17 511 -1 l 511 251 l 43 251 q 31 257 36 251 q 26 269 26 263 l 26 474 q 39 508 26 494 z "},"5":{"ha":819,"x_min":101,"x_max":721,"o":"m 101 954 q 106 967 101 961 q 118 972 111 972 l 704 972 q 716 967 711 972 q 721 954 721 961 l 721 813 q 716 801 721 806 q 704 796 711 796 l 279 796 l 279 631 l 704 631 q 716 626 711 631 q 721 614 721 621 l 721 410 q 708 375 721 390 l 438 22 q 392 -1 421 -1 l 215 -1 q 204 6 208 -1 q 206 19 200 13 l 539 454 l 118 454 q 106 459 111 454 q 101 471 101 464 l 101 954 z "},"6":{"ha":921,"x_min":101,"x_max":822,"o":"m 101 18 l 101 956 q 106 967 101 963 q 118 972 111 972 l 508 972 q 554 950 538 972 l 657 817 q 658 803 661 810 q 647 796 654 796 l 279 796 l 279 178 l 642 178 l 375 524 q 374 538 369 531 q 385 544 378 544 l 561 544 q 607 521 590 544 l 810 257 q 822 222 822 243 l 822 18 q 817 6 822 11 q 806 0 813 0 l 118 0 q 106 6 111 0 q 101 18 101 11 z "},"7":{"ha":781,"x_min":7,"x_max":682,"o":"m 22 972 l 665 972 q 682 954 682 972 l 682 17 q 665 -1 682 -1 l 522 -1 q 506 17 506 -1 l 506 796 l 161 796 q 115 818 132 796 l 13 951 q 11 965 7 958 q 22 972 15 972 z "},"8":{"ha":921,"x_min":101,"x_max":822,"o":"m 118 972 l 806 972 q 817 967 813 972 q 822 954 822 961 l 822 751 q 810 715 822 732 l 633 485 l 810 254 q 822 219 822 240 l 822 17 q 817 4 822 10 q 806 -1 813 -1 l 118 -1 q 106 4 111 -1 q 101 17 101 10 l 101 219 q 114 254 101 240 l 290 485 l 114 715 q 101 751 101 732 l 101 954 q 106 967 101 961 q 118 972 111 972 m 283 794 l 463 563 l 640 794 l 283 794 m 640 175 l 463 408 l 283 175 l 640 175 z "},"9":{"ha":921,"x_min":101,"x_max":822,"o":"m 118 972 l 806 972 q 817 967 813 972 q 822 956 822 963 l 822 18 q 817 6 822 11 q 806 0 813 0 l 415 0 q 369 24 386 0 l 267 157 q 266 171 263 164 q 276 178 269 178 l 644 178 l 644 796 l 282 796 l 549 450 q 550 436 554 443 q 539 429 546 429 l 363 429 q 317 453 333 429 l 114 717 q 101 751 101 732 l 101 956 q 106 967 101 963 q 118 972 111 972 z "},"\u0000":{"ha":0,"x_min":0,"x_max":0,"o":""},"\r":{"ha":347,"x_min":0,"x_max":0,"o":""}," ":{"ha":389,"x_min":0,"x_max":0,"o":""},"a":{"ha":1019,"x_min":101,"x_max":1015,"o":"m 101 17 l 101 956 q 106 967 101 963 q 118 972 111 972 l 250 972 q 296 950 278 972 l 1011 19 q 1012 6 1015 13 q 1000 0 1008 0 l 824 0 q 778 22 796 0 l 538 336 l 296 22 q 250 0 278 0 l 118 0 q 106 5 111 0 q 101 17 101 10 m 279 672 l 279 300 l 422 486 l 279 672 z "},"A":{"ha":1019,"x_min":7,"x_max":921,"o":"m 13 19 l 726 950 q 772 972 744 972 l 904 972 q 921 956 921 972 l 921 17 q 904 0 921 0 l 772 0 q 726 22 744 0 l 486 336 l 244 22 q 199 0 226 0 l 22 0 q 11 6 15 0 q 13 19 7 13 m 601 486 l 744 300 l 744 672 l 601 486 z "},"B":{"ha":967,"x_min":101,"x_max":868,"o":"m 118 972 l 851 972 q 868 956 868 972 l 868 751 q 857 717 868 732 l 679 486 l 857 256 q 868 221 868 240 l 868 17 q 851 0 868 0 l 118 0 q 106 5 111 0 q 101 17 101 10 l 101 956 q 106 967 101 963 q 118 972 111 972 m 686 176 l 457 475 q 457 496 450 486 l 686 796 l 279 796 l 279 176 l 686 176 z "},"C":{"ha":996,"x_min":63,"x_max":942,"o":"m 63 490 q 102 689 63 597 q 209 849 142 781 q 368 955 276 917 q 565 992 460 993 q 773 946 678 990 q 938 824 868 901 q 941 811 942 818 q 935 800 940 804 l 825 707 q 813 703 819 703 q 801 710 806 704 q 693 794 756 763 q 558 824 631 825 q 435 795 493 822 q 333 722 376 768 q 265 614 290 675 q 240 483 240 553 q 267 353 240 414 q 338 246 293 292 q 440 174 382 200 q 565 149 499 149 q 696 181 635 150 q 801 264 757 211 q 813 270 806 269 q 825 265 819 271 l 935 172 q 941 161 940 168 q 938 149 942 154 q 769 24 867 69 q 557 -19 672 -21 q 362 20 453 -19 q 204 128 271 60 q 100 290 138 197 q 63 490 63 383 z "},"D":{"ha":974,"x_min":101,"x_max":917,"o":"m 101 956 q 106 967 101 963 q 118 972 111 972 l 428 972 q 615 935 528 972 q 768 833 703 897 q 873 681 833 768 q 914 496 913 594 q 877 303 917 393 q 769 145 838 213 q 610 39 701 78 q 417 0 519 0 l 118 0 q 106 5 111 0 q 101 17 101 10 l 101 956 m 279 176 l 428 176 q 548 201 492 176 q 647 267 604 225 q 713 366 689 310 q 738 486 738 422 q 713 606 738 550 q 647 705 689 663 q 548 772 604 747 q 428 796 492 796 l 279 796 l 279 176 z "},"e":{"ha":781,"x_min":101,"x_max":776,"o":"m 101 956 q 106 967 101 963 q 118 972 111 972 l 718 972 q 735 956 735 972 l 735 813 q 718 796 735 796 l 279 796 l 279 574 l 626 574 q 643 557 643 574 l 643 415 q 626 397 643 397 l 279 397 l 279 176 l 761 176 q 773 169 769 176 q 771 157 776 163 l 668 22 q 622 0 650 0 l 118 0 q 106 5 111 0 q 101 17 101 10 l 101 956 z "},"E":{"ha":872,"x_min":101,"x_max":776,"o":"m 118 972 l 761 972 q 773 966 769 972 q 771 953 776 960 l 668 818 q 622 796 650 796 l 279 796 l 279 574 l 626 574 q 643 557 643 574 l 643 415 q 626 397 643 397 l 279 397 l 279 176 l 718 176 q 730 172 725 176 q 735 160 735 167 l 735 17 q 718 0 735 0 l 118 0 q 106 5 111 0 q 101 17 101 10 l 101 956 q 106 967 101 963 q 118 972 111 972 z "},"F":{"ha":781,"x_min":101,"x_max":776,"o":"m 118 972 l 761 972 q 773 966 769 972 q 771 953 776 960 l 668 818 q 622 796 650 796 l 279 796 l 279 574 l 626 574 q 643 557 643 574 l 643 415 q 626 397 643 397 l 279 397 l 279 17 q 261 0 279 0 l 118 0 q 106 5 111 0 q 101 17 101 10 l 101 956 q 106 967 101 963 q 118 972 111 972 z "},"f":{"ha":833,"x_min":101,"x_max":735,"o":"m 118 972 l 718 972 q 735 956 735 972 l 735 813 q 718 796 735 796 l 279 796 l 279 574 l 661 574 q 672 567 668 574 q 671 554 675 561 l 568 419 q 522 397 550 397 l 279 397 l 279 17 q 261 0 279 0 l 118 0 q 106 5 111 0 q 101 17 101 10 l 101 956 q 106 967 101 963 q 118 972 111 972 z "},"G":{"ha":1124,"x_min":63,"x_max":1065,"o":"m 63 490 q 102 690 63 597 q 209 849 142 782 q 368 955 276 917 q 565 992 460 993 q 756 953 667 990 q 911 851 844 917 q 913 829 922 840 l 824 714 q 812 706 819 707 q 799 713 804 706 q 692 794 754 764 q 558 824 629 825 q 435 796 493 824 q 333 722 376 768 q 265 615 290 676 q 240 483 240 553 q 267 354 240 415 q 338 247 293 293 q 440 175 382 201 q 565 149 499 149 q 669 169 619 150 q 759 222 718 189 q 829 301 800 256 q 872 399 858 346 l 601 399 q 591 405 594 399 q 592 418 588 411 l 681 549 q 728 574 699 574 l 1057 574 q 1063 528 1061 550 q 1064 482 1065 506 q 1023 285 1063 376 q 915 125 983 193 q 754 19 846 57 q 557 -19 663 -19 q 362 20 453 -19 q 204 128 271 60 q 100 290 138 197 q 63 490 63 383 z "},"H":{"ha":954,"x_min":101,"x_max":856,"o":"m 101 17 l 101 956 q 106 967 101 963 q 118 972 111 972 l 261 972 q 279 956 279 972 l 279 574 l 678 574 l 678 956 q 683 967 678 963 q 694 972 688 972 l 839 972 q 851 967 846 972 q 856 956 856 963 l 856 17 q 851 5 856 10 q 839 0 846 0 l 694 0 q 683 5 688 0 q 678 17 678 10 l 678 397 l 279 397 l 279 17 q 261 0 279 0 l 118 0 q 106 5 111 0 q 101 17 101 10 z "},"I":{"ha":378,"x_min":101,"x_max":279,"o":"m 118 972 l 261 972 q 279 956 279 972 l 279 17 q 261 0 279 0 l 118 0 q 106 5 111 0 q 101 17 101 10 l 101 956 q 106 967 101 963 q 118 972 111 972 z "},"J":{"ha":636,"x_min":-6,"x_max":538,"o":"m 7 100 l 117 192 q 139 192 129 201 q 243 154 181 150 q 328 199 294 160 q 361 289 361 238 l 361 956 q 366 967 361 963 q 378 972 371 972 l 521 972 q 538 956 538 972 l 538 293 q 515 172 538 229 q 451 73 492 115 q 355 5 410 31 q 238 -22 300 -21 q 109 2 168 -25 q 6 75 50 29 q 7 100 -6 88 z "},"j":{"ha":631,"x_min":7,"x_max":532,"o":"m 13 19 l 354 465 l 354 956 q 359 967 354 963 q 371 972 364 972 l 514 972 q 532 956 532 972 l 532 415 q 519 381 532 396 l 244 22 q 199 0 226 0 l 22 0 q 11 6 15 0 q 13 19 7 13 z "},"L":{"ha":688,"x_min":101,"x_max":683,"o":"m 118 972 l 261 972 q 279 956 279 972 l 279 176 l 668 176 q 680 169 676 176 q 679 157 683 163 l 575 22 q 531 0 557 0 l 118 0 q 106 5 111 0 q 101 17 101 10 l 101 956 q 106 967 101 963 q 118 972 111 972 z "},"M":{"ha":1714,"x_min":7,"x_max":1615,"o":"m 13 19 l 726 950 q 772 972 744 972 l 904 972 q 921 956 921 972 l 921 300 l 1421 950 q 1467 972 1439 972 l 1599 972 q 1615 956 1615 972 l 1615 17 q 1599 0 1615 0 l 1456 0 q 1438 17 1438 0 l 1438 672 l 939 22 q 893 0 921 0 l 761 0 q 744 17 744 0 l 744 672 l 244 22 q 199 0 226 0 l 22 0 q 11 6 15 0 q 13 19 7 13 z "},"m":{"ha":1714,"x_min":101,"x_max":1710,"o":"m 118 972 l 250 972 q 296 950 278 972 l 796 300 l 796 956 q 813 972 796 972 l 944 972 q 990 950 972 972 l 1704 19 q 1706 6 1710 13 q 1694 0 1703 0 l 1518 0 q 1472 22 1490 0 l 972 672 l 972 17 q 956 0 972 0 l 824 0 q 778 22 796 0 l 279 672 l 279 17 q 261 0 279 0 l 118 0 q 106 5 111 0 q 101 17 101 10 l 101 956 q 106 967 101 963 q 118 972 111 972 z "},"N":{"ha":1071,"x_min":101,"x_max":972,"o":"m 101 17 l 101 956 q 106 967 101 963 q 118 972 111 972 l 250 972 q 296 950 278 972 l 796 300 l 796 956 q 813 972 796 972 l 956 972 q 972 956 972 972 l 972 17 q 956 0 972 0 l 824 0 q 778 22 796 0 l 279 672 l 279 17 q 261 0 279 0 l 118 0 q 106 5 111 0 q 101 17 101 10 z "},"O":{"ha":1124,"x_min":63,"x_max":1067,"o":"m 63 490 q 102 690 63 597 q 209 849 142 782 q 368 955 276 917 q 565 992 460 993 q 763 950 671 990 q 922 840 854 910 q 1028 678 989 771 q 1065 482 1067 586 q 1024 285 1064 376 q 915 125 983 193 q 754 19 846 57 q 557 -19 663 -19 q 362 20 453 -19 q 204 128 271 60 q 100 290 138 197 q 63 490 63 383 m 240 483 q 267 354 240 415 q 338 247 293 293 q 440 175 382 201 q 565 149 499 149 q 689 178 631 150 q 791 252 747 206 q 860 360 835 299 q 883 490 885 422 q 857 619 883 558 q 786 726 831 681 q 683 797 742 771 q 558 824 624 824 q 435 795 493 822 q 333 722 376 768 q 265 614 290 675 q 240 483 240 553 z "},"P":{"ha":911,"x_min":101,"x_max":868,"o":"m 101 19 l 101 958 q 106 970 101 965 q 118 975 111 975 l 851 975 q 863 970 858 975 q 868 958 868 965 l 868 754 q 856 719 868 735 l 653 454 q 607 432 635 432 l 431 432 q 419 438 422 432 q 421 451 415 444 l 688 799 l 279 799 l 279 19 q 261 3 279 3 l 118 3 q 106 8 111 3 q 101 19 101 13 z "},"Q":{"ha":1124,"x_min":63,"x_max":1067,"o":"m 63 493 q 102 692 63 600 q 209 851 142 783 q 368 958 276 919 q 565 994 460 996 q 763 953 671 993 q 922 843 854 913 q 1028 681 989 774 q 1065 485 1067 589 q 1032 309 1064 392 q 945 161 1000 226 q 815 51 890 96 q 653 -8 740 7 l 653 -172 q 635 -190 653 -190 l 492 -190 q 475 -172 475 -190 l 475 -10 q 310 49 386 6 q 178 160 233 93 q 93 312 124 226 q 63 493 63 397 m 240 486 q 258 378 240 429 q 308 284 276 326 q 382 211 339 242 q 475 165 425 181 l 475 324 q 492 340 475 340 l 635 340 q 653 324 653 340 l 653 167 q 745 214 703 182 q 819 289 788 246 q 867 384 850 332 q 883 492 883 436 q 857 622 883 561 q 786 728 831 682 q 683 800 742 774 q 558 826 624 826 q 435 798 493 825 q 333 724 376 771 q 265 617 290 678 q 240 486 240 556 z "},"R":{"ha":963,"x_min":101,"x_max":954,"o":"m 101 958 q 106 970 101 965 q 118 975 111 975 l 851 975 q 863 970 858 975 q 868 958 868 965 l 868 754 q 856 719 868 735 l 636 432 l 950 22 q 951 9 954 15 q 940 3 947 3 l 764 3 q 718 25 736 3 l 414 421 q 414 442 404 432 l 688 799 l 279 799 l 279 19 q 261 3 279 3 l 118 3 q 106 8 111 3 q 101 19 101 13 l 101 958 z "},"T":{"ha":831,"x_min":53,"x_max":826,"o":"m 53 958 q 58 970 53 965 q 69 975 63 975 l 672 975 q 718 953 700 975 l 821 818 q 823 805 826 811 q 811 799 819 799 l 501 799 l 501 19 q 485 3 501 3 l 342 3 q 325 19 325 3 l 325 799 l 69 799 q 58 803 63 799 q 53 815 53 808 l 53 958 z "},"U":{"ha":926,"x_min":92,"x_max":828,"o":"m 108 975 l 251 975 q 263 970 258 975 q 268 958 268 965 l 268 357 q 281 285 268 319 q 317 224 294 251 q 372 181 340 197 q 442 160 404 164 q 523 169 485 156 q 590 210 561 183 q 635 273 618 236 q 651 351 651 310 l 651 958 q 657 970 651 965 q 669 975 663 975 l 811 975 q 823 970 818 975 q 828 958 828 965 l 828 351 q 799 210 828 276 q 722 93 771 143 q 608 13 674 43 q 467 -18 542 -17 q 321 10 389 -19 q 201 92 253 40 q 121 213 150 144 q 92 360 92 282 l 92 958 q 97 970 92 965 q 108 975 101 975 z "},"v":{"ha":1019,"x_min":101,"x_max":1015,"o":"m 118 975 l 261 975 q 274 970 268 975 q 279 958 279 965 l 279 303 l 778 953 q 824 975 796 975 l 1000 975 q 1012 968 1008 975 q 1011 956 1015 961 l 296 25 q 250 3 278 3 l 118 3 q 106 8 111 3 q 101 19 101 13 l 101 958 q 106 970 101 965 q 118 975 111 975 z "},"V":{"ha":1019,"x_min":7,"x_max":921,"o":"m 22 975 l 199 975 q 244 953 226 975 l 744 303 l 744 958 q 749 970 744 965 q 761 975 754 975 l 904 975 q 916 970 911 975 q 921 958 921 965 l 921 19 q 904 3 921 3 l 772 3 q 726 25 744 3 l 13 956 q 11 968 7 961 q 22 975 15 975 z "},"W":{"ha":1714,"x_min":7,"x_max":1615,"o":"m 22 975 l 199 975 q 244 953 226 975 l 744 303 l 744 958 q 749 970 744 965 q 761 975 754 975 l 893 975 q 939 953 921 975 l 1438 303 l 1438 958 q 1443 970 1438 965 q 1456 975 1449 975 l 1599 975 q 1610 970 1606 975 q 1615 958 1615 965 l 1615 19 q 1599 3 1615 3 l 1467 3 q 1421 25 1439 3 l 921 675 l 921 19 q 904 3 921 3 l 772 3 q 726 25 744 3 l 13 956 q 11 968 7 961 q 22 975 15 975 z "},"w":{"ha":1714,"x_min":101,"x_max":1710,"o":"m 101 958 q 106 970 101 965 q 118 975 111 975 l 261 975 q 274 970 268 975 q 279 958 279 965 l 279 303 l 778 953 q 824 975 796 975 l 956 975 q 967 970 963 975 q 972 958 972 965 l 972 303 l 1472 953 q 1518 975 1490 975 l 1694 975 q 1706 968 1703 975 q 1704 956 1710 961 l 990 25 q 944 3 972 3 l 813 3 q 796 19 796 3 l 796 675 l 296 25 q 250 3 278 3 l 118 3 q 106 8 111 3 q 101 19 101 13 l 101 958 z "},"X":{"ha":968,"x_min":7,"x_max":964,"o":"m 13 22 l 371 489 l 13 956 q 11 968 7 961 q 22 975 15 975 l 199 975 q 244 953 226 975 l 486 639 l 726 953 q 772 975 744 975 l 949 975 q 960 968 957 975 q 958 956 964 961 l 600 489 l 958 22 q 960 9 964 15 q 949 3 957 3 l 772 3 q 726 25 744 3 l 486 339 l 244 25 q 199 3 226 3 l 22 3 q 11 9 15 3 q 13 22 7 15 z "},"y":{"ha":1056,"x_min":7,"x_max":1051,"o":"m 22 975 l 199 975 q 244 953 226 975 l 529 582 l 814 953 q 860 975 832 975 l 1036 975 q 1048 968 1044 975 q 1046 956 1051 961 l 332 25 q 286 3 314 3 l 110 3 q 99 9 103 3 q 100 22 94 15 l 414 432 l 13 956 q 11 968 7 961 q 22 975 15 975 z "},"Y":{"ha":1056,"x_min":7,"x_max":1051,"o":"m 22 975 l 199 975 q 244 953 226 975 l 529 582 l 814 953 q 860 975 832 975 l 1036 975 q 1048 968 1044 975 q 1046 956 1051 961 l 618 397 l 618 19 q 613 8 618 13 q 601 3 608 3 l 458 3 q 440 19 440 3 l 440 397 l 13 956 q 11 968 7 961 q 22 975 15 975 z "},"Z":{"ha":808,"x_min":101,"x_max":710,"o":"m 101 19 l 101 224 q 114 258 101 244 l 528 799 l 118 799 q 106 803 111 799 q 101 815 101 808 l 101 958 q 106 970 101 965 q 118 975 111 975 l 693 975 q 705 970 700 975 q 710 958 710 965 l 710 754 q 697 719 710 735 l 283 179 l 693 179 q 705 174 700 179 q 710 163 710 169 l 710 19 q 705 8 710 13 q 693 3 700 3 l 118 3 q 106 8 111 3 q 101 19 101 13 z "},"-":{"ha":635,"x_min":101,"x_max":536,"o":"m 119 575 l 518 575 q 536 557 536 575 l 536 406 q 518 388 536 388 l 119 388 q 101 406 101 388 l 101 557 q 119 575 101 575 z "},"+":{"ha":643,"x_min":36,"x_max":608,"o":"m 54 568 l 228 568 l 228 743 q 246 761 228 761 l 397 761 q 415 743 415 761 l 415 568 l 590 568 q 608 550 608 568 l 608 399 q 590 381 608 381 l 415 381 l 415 207 q 397 189 415 189 l 246 189 q 228 207 228 189 l 228 381 l 54 381 q 36 399 36 381 l 36 550 q 54 568 36 568 z "},"!":{"ha":378,"x_min":101,"x_max":279,"o":"m 101 414 l 101 954 q 106 967 101 961 q 118 972 111 972 l 261 972 q 279 954 279 972 l 279 414 q 261 397 279 397 l 118 397 q 106 402 111 397 q 101 414 101 407 m 118 176 l 261 176 q 279 160 279 176 l 279 17 q 261 -1 279 -1 l 118 -1 q 106 4 111 -1 q 101 17 101 10 l 101 160 q 106 172 101 167 q 118 176 111 176 z "},"?":{"ha":861,"x_min":101,"x_max":763,"o":"m 101 813 l 101 954 q 106 967 101 961 q 118 972 111 972 l 746 972 q 763 954 763 972 l 763 750 q 751 715 763 731 l 524 419 q 478 397 506 397 l 301 397 q 290 403 293 397 q 292 417 286 410 l 582 796 l 118 796 q 106 801 111 796 q 101 813 101 806 m 288 17 l 288 171 q 292 183 288 178 q 304 188 297 188 l 461 188 q 478 171 478 188 l 478 17 q 461 -1 478 -1 l 304 -1 q 292 4 297 -1 q 288 17 288 10 z "},":":{"ha":386,"x_min":99,"x_max":288,"o":"m 117 790 l 269 790 q 288 771 288 790 l 288 619 q 269 601 288 601 l 117 601 q 99 619 99 601 l 99 771 q 117 790 99 790 m 117 367 l 269 367 q 288 349 288 367 l 288 196 q 269 178 288 178 l 117 178 q 99 196 99 178 l 99 349 q 117 367 99 367 z "},";":{"ha":375,"x_min":99,"x_max":276,"o":"m 115 310 l 258 310 q 276 293 276 310 l 276 17 q 258 -1 276 -1 l 115 -1 q 103 4 108 -1 q 99 17 99 10 l 99 293 q 103 305 99 300 q 115 310 108 310 m 115 772 l 258 772 q 276 756 276 772 l 276 613 q 258 596 276 596 l 115 596 q 103 601 108 596 q 99 613 99 606 l 99 756 q 103 767 99 763 q 115 772 108 772 z "},".":{"ha":385,"x_min":99,"x_max":286,"o":"m 117 188 l 268 188 q 286 169 286 188 l 286 17 q 268 -1 286 -1 l 117 -1 q 99 17 99 -1 l 99 169 q 117 188 99 188 z "},",":{"ha":386,"x_min":99,"x_max":288,"o":"m 117 188 l 269 188 q 288 169 288 188 l 288 -142 q 269 -160 288 -160 l 117 -160 q 99 -142 99 -160 l 99 169 q 117 188 99 188 z "},"/":{"ha":968,"x_min":7,"x_max":964,"o":"m 13 19 l 726 950 q 772 972 744 972 l 949 972 q 960 965 957 972 q 958 951 964 958 l 244 22 q 199 -1 228 -1 l 22 -1 q 11 6 15 -1 q 13 19 7 13 z "},"\\":{"ha":968,"x_min":7,"x_max":964,"o":"m 22 972 l 199 972 q 244 950 226 972 l 958 19 q 960 6 964 13 q 949 -1 957 -1 l 772 -1 q 726 22 743 -1 l 13 951 q 11 965 7 958 q 22 972 15 972 z "},"(":{"ha":618,"x_min":19,"x_max":614,"o":"m 29 496 l 376 950 q 422 972 394 972 l 599 972 q 610 965 607 972 q 610 951 614 958 l 251 486 l 610 19 q 610 6 614 13 q 599 -1 607 -1 l 422 -1 q 376 22 393 -1 l 29 475 q 29 496 19 486 z "},")":{"ha":619,"x_min":7,"x_max":601,"o":"m 22 972 l 199 972 q 244 950 226 972 l 593 496 q 593 475 601 486 l 244 22 q 199 -1 228 -1 l 22 -1 q 11 6 15 -1 q 13 19 7 13 l 371 486 l 13 951 q 11 965 7 958 q 22 972 15 972 z "},"K":{"ha":925,"x_min":101,"x_max":921,"o":"m 335 496 l 683 950 q 729 972 701 972 l 906 972 q 917 966 914 972 q 917 953 921 960 l 558 486 l 915 19 q 917 6 921 13 q 906 0 914 0 l 729 0 q 683 22 701 0 l 335 475 q 335 496 328 486 m 101 956 q 106 967 101 963 q 118 972 111 972 l 261 972 q 279 956 279 972 l 279 17 q 261 0 279 0 l 118 0 q 106 5 111 0 q 101 17 101 10 l 101 956 z "},"|":{"ha":378,"x_min":101,"x_max":279,"o":"m 118 972 l 261 972 q 279 956 279 972 l 279 17 q 261 0 279 0 l 118 0 q 106 5 111 0 q 101 17 101 10 l 101 956 q 106 967 101 963 q 118 972 111 972 z "},"<":{"ha":618,"x_min":19,"x_max":614,"o":"m 29 496 l 376 950 q 422 972 394 972 l 599 972 q 610 965 607 972 q 610 951 614 958 l 251 486 l 610 19 q 610 6 614 13 q 599 -1 607 -1 l 422 -1 q 376 22 393 -1 l 29 475 q 29 496 19 486 z "},">":{"ha":619,"x_min":7,"x_max":601,"o":"m 22 972 l 199 972 q 244 950 226 972 l 593 496 q 593 475 601 486 l 244 22 q 199 -1 228 -1 l 22 -1 q 11 6 15 -1 q 13 19 7 13 l 371 486 l 13 951 q 11 965 7 958 q 22 972 15 972 z "},"'":{"ha":386,"x_min":99,"x_max":288,"o":"m 117 972 l 269 972 q 288 954 288 972 l 288 643 q 269 625 288 625 l 117 625 q 99 643 99 625 l 99 954 q 117 972 99 972 z "},"\"":{"ha":668,"x_min":99,"x_max":572,"o":"m 117 972 l 269 972 q 288 954 288 972 l 288 643 q 269 625 288 625 l 117 625 q 99 643 99 625 l 99 954 q 117 972 99 972 m 383 643 l 383 954 q 401 972 383 972 l 554 972 q 572 954 572 972 l 572 643 q 554 625 572 625 l 401 625 q 383 643 383 625 z "},"‘":{"ha":386,"x_min":99,"x_max":288,"o":"m 117 972 l 269 972 q 288 954 288 972 l 288 643 q 269 625 288 625 l 117 625 q 99 643 99 625 l 99 954 q 117 972 99 972 z "},"’":{"ha":386,"x_min":99,"x_max":288,"o":"m 117 972 l 269 972 q 288 954 288 972 l 288 643 q 269 625 288 625 l 117 625 q 99 643 99 625 l 99 954 q 117 972 99 972 z "},"“":{"ha":668,"x_min":99,"x_max":572,"o":"m 117 972 l 269 972 q 288 954 288 972 l 288 643 q 269 625 288 625 l 117 625 q 99 643 99 625 l 99 954 q 117 972 99 972 m 383 643 l 383 954 q 401 972 383 972 l 554 972 q 572 954 572 972 l 572 643 q 554 625 572 625 l 401 625 q 383 643 383 625 z "},"”":{"ha":668,"x_min":99,"x_max":572,"o":"m 117 972 l 269 972 q 288 954 288 972 l 288 643 q 269 625 288 625 l 117 625 q 99 643 99 625 l 99 954 q 117 972 99 972 m 383 643 l 383 954 q 401 972 383 972 l 554 972 q 572 954 572 972 l 572 643 q 554 625 572 625 l 401 625 q 383 643 383 625 z "},"–":{"ha":638,"x_min":101,"x_max":536,"o":"m 119 575 l 518 575 q 536 557 536 575 l 536 406 q 518 388 536 388 l 119 388 q 101 406 101 388 l 101 557 q 119 575 101 575 z "},"—":{"ha":806,"x_min":101,"x_max":704,"o":"m 119 575 l 686 575 q 704 557 704 575 l 704 406 q 686 388 704 388 l 119 388 q 101 406 101 388 l 101 557 q 119 575 101 575 z "},"_":{"ha":974,"x_min":101,"x_max":872,"o":"m 119 188 l 854 188 q 872 169 872 188 l 872 18 q 854 0 872 0 l 119 0 q 101 18 101 0 l 101 169 q 119 188 101 188 z "},"b":{"ha":967,"x_min":101,"x_max":868,"o":"m 118 972 l 851 972 q 868 956 868 972 l 868 751 q 857 717 868 732 l 679 486 l 857 256 q 868 221 868 240 l 868 17 q 851 0 868 0 l 118 0 q 106 5 111 0 q 101 17 101 10 l 101 956 q 106 967 101 963 q 118 972 111 972 m 686 176 l 457 475 q 457 496 450 486 l 686 796 l 279 796 l 279 176 l 686 176 z "},"c":{"ha":996,"x_min":63,"x_max":942,"o":"m 63 490 q 102 689 63 597 q 209 849 142 781 q 368 955 276 917 q 565 992 460 993 q 773 946 678 990 q 938 824 868 901 q 941 811 942 818 q 935 800 940 804 l 825 707 q 813 703 819 703 q 801 710 806 704 q 693 794 756 763 q 558 824 631 825 q 435 795 493 822 q 333 722 376 768 q 265 614 290 675 q 240 483 240 553 q 267 353 240 414 q 338 246 293 292 q 440 174 382 200 q 565 149 499 149 q 696 181 635 150 q 801 264 757 211 q 813 270 806 269 q 825 265 819 271 l 935 172 q 941 161 940 168 q 938 149 942 154 q 769 24 867 69 q 557 -19 672 -21 q 362 20 453 -19 q 204 128 271 60 q 100 290 138 197 q 63 490 63 383 z "},"g":{"ha":1124,"x_min":63,"x_max":1065,"o":"m 63 490 q 102 690 63 597 q 209 849 142 782 q 368 955 276 917 q 565 992 460 993 q 756 953 667 990 q 911 851 844 917 q 913 829 922 840 l 824 714 q 812 706 819 707 q 799 713 804 706 q 692 794 754 764 q 558 824 629 825 q 435 796 493 824 q 333 722 376 768 q 265 615 290 676 q 240 483 240 553 q 267 354 240 415 q 338 247 293 293 q 440 175 382 201 q 565 149 499 149 q 669 169 619 150 q 759 222 718 189 q 829 301 800 256 q 872 399 858 346 l 601 399 q 591 405 594 399 q 592 418 588 411 l 681 549 q 728 574 699 574 l 1057 574 q 1063 528 1061 550 q 1064 482 1065 506 q 1023 285 1063 376 q 915 125 983 193 q 754 19 846 57 q 557 -19 663 -19 q 362 20 453 -19 q 204 128 271 60 q 100 290 138 197 q 63 490 63 383 z "},"h":{"ha":954,"x_min":101,"x_max":856,"o":"m 101 17 l 101 956 q 106 967 101 963 q 118 972 111 972 l 261 972 q 279 956 279 972 l 279 574 l 678 574 l 678 956 q 683 967 678 963 q 694 972 688 972 l 839 972 q 851 967 846 972 q 856 956 856 963 l 856 17 q 851 5 856 10 q 839 0 846 0 l 694 0 q 683 5 688 0 q 678 17 678 10 l 678 397 l 279 397 l 279 17 q 261 0 279 0 l 118 0 q 106 5 111 0 q 101 17 101 10 z "},"i":{"ha":378,"x_min":101,"x_max":279,"o":"m 118 972 l 261 972 q 279 956 279 972 l 279 17 q 261 0 279 0 l 118 0 q 106 5 111 0 q 101 17 101 10 l 101 956 q 106 967 101 963 q 118 972 111 972 z "},"k":{"ha":925,"x_min":101,"x_max":921,"o":"m 335 496 l 683 950 q 729 972 701 972 l 906 972 q 917 966 914 972 q 917 953 921 960 l 558 486 l 915 19 q 917 6 921 13 q 906 0 914 0 l 729 0 q 683 22 701 0 l 335 475 q 335 496 328 486 m 101 956 q 106 967 101 963 q 118 972 111 972 l 261 972 q 279 956 279 972 l 279 17 q 261 0 279 0 l 118 0 q 106 5 111 0 q 101 17 101 10 l 101 956 z "},"l":{"ha":688,"x_min":101,"x_max":683,"o":"m 118 972 l 261 972 q 279 956 279 972 l 279 176 l 668 176 q 680 169 676 176 q 679 157 683 163 l 575 22 q 531 0 557 0 l 118 0 q 106 5 111 0 q 101 17 101 10 l 101 956 q 106 967 101 963 q 118 972 111 972 z "},"n":{"ha":1071,"x_min":101,"x_max":972,"o":"m 101 17 l 101 956 q 106 967 101 963 q 118 972 111 972 l 250 972 q 296 950 278 972 l 796 300 l 796 956 q 813 972 796 972 l 956 972 q 972 956 972 972 l 972 17 q 956 0 972 0 l 824 0 q 778 22 796 0 l 279 672 l 279 17 q 261 0 279 0 l 118 0 q 106 5 111 0 q 101 17 101 10 z "},"o":{"ha":1124,"x_min":63,"x_max":1067,"o":"m 63 490 q 102 690 63 597 q 209 849 142 782 q 368 955 276 917 q 565 992 460 993 q 763 950 671 990 q 922 840 854 910 q 1028 678 989 771 q 1065 482 1067 586 q 1024 285 1064 376 q 915 125 983 193 q 754 19 846 57 q 557 -19 663 -19 q 362 20 453 -19 q 204 128 271 60 q 100 290 138 197 q 63 490 63 383 m 240 483 q 267 354 240 415 q 338 247 293 293 q 440 175 382 201 q 565 149 499 149 q 689 178 631 150 q 791 252 747 206 q 860 360 835 299 q 883 490 885 422 q 857 619 883 558 q 786 726 831 681 q 683 797 742 771 q 558 824 624 824 q 435 795 493 822 q 333 722 376 768 q 265 614 290 675 q 240 483 240 553 z "},"p":{"ha":911,"x_min":101,"x_max":868,"o":"m 101 19 l 101 958 q 106 970 101 965 q 118 975 111 975 l 851 975 q 863 970 858 975 q 868 958 868 965 l 868 754 q 856 719 868 735 l 653 454 q 607 432 635 432 l 431 432 q 419 438 422 432 q 421 451 415 444 l 688 799 l 279 799 l 279 19 q 261 3 279 3 l 118 3 q 106 8 111 3 q 101 19 101 13 z "},"q":{"ha":1124,"x_min":61,"x_max":1097,"o":"m 61 492 q 83 640 61 568 q 144 774 104 713 q 242 883 185 835 q 371 958 299 931 q 567 994 463 996 q 763 953 671 994 q 922 843 854 913 q 1028 681 990 774 q 1065 483 1067 589 q 1038 323 1064 399 q 967 185 1013 247 l 1093 21 q 1094 7 1097 14 q 1083 0 1090 0 l 906 0 q 860 22 878 0 l 832 60 q 703 1 772 22 q 557 -19 633 -19 q 360 21 451 -19 q 203 130 269 61 q 99 292 136 199 q 61 492 61 385 m 240 485 q 267 356 240 417 q 338 249 293 294 q 440 176 382 203 q 565 150 499 150 q 693 180 635 151 q 794 256 751 208 q 860 364 836 303 q 885 492 885 425 q 858 622 885 561 q 787 728 832 682 q 683 800 742 774 q 558 826 624 826 q 432 798 490 826 q 331 722 374 769 q 263 612 288 674 q 240 485 239 550 z "},"r":{"ha":963,"x_min":101,"x_max":954,"o":"m 101 958 q 106 970 101 965 q 118 975 111 975 l 851 975 q 863 970 858 975 q 868 958 868 965 l 868 754 q 856 719 868 735 l 636 432 l 950 22 q 951 9 954 15 q 940 3 947 3 l 764 3 q 718 25 736 3 l 414 421 q 414 442 404 432 l 688 799 l 279 799 l 279 19 q 261 3 279 3 l 118 3 q 106 8 111 3 q 101 19 101 13 l 101 958 z "},"s":{"ha":818,"x_min":75,"x_max":778,"o":"m 75 688 q 102 808 75 753 q 176 904 129 864 q 284 968 222 944 q 415 992 346 992 q 603 953 524 992 q 724 865 683 915 q 722 843 733 853 l 626 743 q 613 738 621 738 q 600 744 606 738 q 569 772 588 758 q 526 798 550 786 q 474 817 501 810 q 417 824 446 824 q 353 813 382 824 q 306 786 325 803 q 275 747 286 769 q 264 700 264 725 q 290 631 264 660 q 369 590 317 601 l 506 564 q 623 524 572 551 q 708 460 674 497 q 760 376 742 422 q 778 278 778 329 q 755 168 778 222 q 687 71 732 114 q 576 2 642 28 q 426 -24 511 -24 q 315 -11 367 -24 q 220 22 263 1 q 146 66 178 42 q 93 114 114 90 q 93 136 83 124 l 181 249 q 192 256 185 256 q 206 251 200 257 q 249 215 225 233 q 300 181 272 196 q 360 156 328 165 q 428 146 392 146 q 544 179 504 146 q 585 265 585 213 q 555 338 585 307 q 467 381 525 369 l 331 408 q 144 504 214 432 q 75 688 75 576 z "},"t":{"ha":831,"x_min":53,"x_max":826,"o":"m 53 958 q 58 970 53 965 q 69 975 63 975 l 672 975 q 718 953 700 975 l 821 818 q 823 805 826 811 q 811 799 819 799 l 501 799 l 501 19 q 485 3 501 3 l 342 3 q 325 19 325 3 l 325 799 l 69 799 q 58 803 63 799 q 53 815 53 808 l 53 958 z "},"u":{"ha":936,"x_min":101,"x_max":838,"o":"m 118 975 l 261 975 q 273 970 268 975 q 278 958 278 965 l 278 357 q 291 285 278 319 q 327 224 304 251 q 382 181 350 197 q 451 160 414 164 q 533 169 494 156 q 599 210 571 183 q 644 273 628 236 q 661 351 661 310 l 661 958 q 667 970 661 965 q 679 975 672 975 l 821 975 q 833 970 828 975 q 838 958 838 965 l 838 351 q 809 210 838 276 q 732 93 781 143 q 617 13 683 43 q 476 -18 551 -17 q 331 10 399 -19 q 211 92 263 40 q 131 213 160 144 q 101 360 101 282 l 101 958 q 106 970 101 965 q 118 975 111 975 z "},"x":{"ha":968,"x_min":7,"x_max":964,"o":"m 13 22 l 371 489 l 13 956 q 11 968 7 961 q 22 975 15 975 l 199 975 q 244 953 226 975 l 486 639 l 726 953 q 772 975 744 975 l 949 975 q 960 968 957 975 q 958 956 964 961 l 600 489 l 958 22 q 960 9 964 15 q 949 3 957 3 l 772 3 q 726 25 744 3 l 486 339 l 244 25 q 199 3 226 3 l 22 3 q 11 9 15 3 q 13 22 7 15 z "},"z":{"ha":808,"x_min":101,"x_max":710,"o":"m 101 19 l 101 224 q 114 258 101 244 l 528 799 l 118 799 q 106 803 111 799 q 101 815 101 808 l 101 958 q 106 970 101 965 q 118 975 111 975 l 693 975 q 705 970 700 975 q 710 958 710 965 l 710 754 q 697 719 710 735 l 283 179 l 693 179 q 705 174 700 179 q 710 163 710 169 l 710 19 q 705 8 710 13 q 693 3 700 3 l 118 3 q 106 8 111 3 q 101 19 101 13 z "},"d":{"ha":974,"x_min":101,"x_max":917,"o":"m 101 956 q 106 967 101 963 q 118 972 111 972 l 428 972 q 615 935 528 972 q 768 833 703 897 q 873 681 833 768 q 914 496 913 594 q 877 303 917 393 q 769 145 838 213 q 610 39 701 78 q 417 0 519 0 l 118 0 q 106 5 111 0 q 101 17 101 10 l 101 956 m 279 176 l 428 176 q 548 201 492 176 q 647 267 604 225 q 713 366 689 310 q 738 486 738 422 q 713 606 738 550 q 647 705 689 663 q 548 772 604 747 q 428 796 492 796 l 279 796 l 279 176 z "},"":{"ha":1840,"x_min":101,"x_max":1740,"o":"m 118 972 l 250 972 q 296 950 278 972 l 1010 19 q 1012 7 1015 14 q 1000 0 1008 0 l 824 0 q 778 22 796 0 l 538 336 l 296 22 q 250 0 278 0 l 118 0 q 106 5 111 0 q 101 17 101 10 l 101 956 q 106 967 101 963 q 118 972 111 972 m 868 956 q 886 972 868 972 l 1018 972 q 1063 950 1044 972 l 1563 300 l 1563 956 q 1579 972 1563 972 l 1722 972 q 1740 956 1740 972 l 1740 17 q 1735 5 1740 10 q 1722 0 1729 0 l 1590 0 q 1544 22 1563 0 l 1046 672 l 1046 292 q 1038 281 1046 283 q 1024 285 1029 278 l 881 471 q 868 506 868 486 l 868 956 m 279 672 l 279 300 l 422 486 l 279 672 z "},"S":{"ha":818,"x_min":75,"x_max":778,"o":"m 75 688 q 102 808 75 753 q 176 904 129 864 q 284 968 222 944 q 415 992 346 992 q 603 953 524 992 q 724 865 683 915 q 722 843 733 853 l 626 743 q 613 738 621 738 q 600 744 606 738 q 569 772 588 758 q 526 798 550 786 q 474 817 501 810 q 417 824 446 824 q 353 813 382 824 q 306 786 325 803 q 275 747 286 769 q 264 700 264 725 q 290 631 264 660 q 369 590 317 601 l 506 564 q 623 524 572 551 q 708 460 674 497 q 760 376 742 422 q 778 278 778 329 q 755 168 778 222 q 687 71 732 114 q 576 2 642 28 q 426 -24 511 -24 q 315 -11 367 -24 q 220 22 263 1 q 146 66 178 42 q 93 114 114 90 q 93 136 83 124 l 181 249 q 192 256 185 256 q 206 251 200 257 q 249 215 225 233 q 300 181 272 196 q 360 156 328 165 q 428 146 392 146 q 544 179 504 146 q 585 265 585 213 q 555 338 585 307 q 467 381 525 369 l 331 408 q 144 504 214 432 q 75 688 75 576 z "}}}
